#tb 0: 1/1
#media_type 0: video
#codec_id 0: rawvideo
#dimensions 0: 320x240
#sar 0: 1/1
0,          0,          0,        1,   307200, 0x30630897
0,          1,          1,        1,   307200, 0xd08784dd
0,          2,          2,        1,   307200, 0xe94387a0
0,          3,          3,        1,   307200, 0x5df7a70e
0,          4,          4,        1,   307200, 0x9c203210
